<svg width="219" height="218" viewBox="0 0 219 218" fill="none" xmlns="http://www.w3.org/2000/svg">
<g clip-path="url(#clip0_5_76)">
<path d="M0.0356838 194.017C0.0478225 194.069 0.0645393 194.119 0.0856568 194.167C0.0910989 194.199 0.101207 194.229 0.115647 194.257L7.3935 206.875L7.42349 206.905C7.44363 206.937 7.46709 206.967 7.49348 206.995C7.53347 207.035 7.57345 207.065 7.61344 207.105C7.64343 207.125 7.65343 207.155 7.68342 207.165C7.69515 207.173 7.7093 207.176 7.72339 207.175C7.83194 207.23 7.95144 207.261 8.07329 207.265H131.907C132.029 207.261 132.148 207.23 132.257 207.175C132.287 207.155 132.307 207.135 132.337 207.115C132.417 207.064 132.486 206.996 132.537 206.915C132.547 206.895 132.567 206.885 132.587 206.865L139.874 194.247C139.884 194.237 139.884 194.217 139.894 194.207C139.914 194.177 139.927 194.143 139.934 194.107C139.944 194.077 139.954 194.037 139.964 194.007C139.973 193.975 139.976 193.941 139.974 193.907C139.974 193.887 139.984 193.877 139.984 193.857C139.984 193.837 139.974 193.827 139.974 193.807C139.974 193.787 139.964 193.737 139.964 193.707C139.964 193.677 139.944 193.638 139.934 193.608C139.924 193.573 139.91 193.54 139.894 193.508C139.884 193.498 139.884 193.478 139.874 193.468L77.9627 86.2189C77.9452 86.1935 77.9251 86.1701 77.9027 86.1489C77.8714 86.1043 77.8345 86.064 77.7928 86.0289C77.7144 85.9712 77.6307 85.921 77.5428 85.879C77.4908 85.8633 77.4371 85.8532 77.3829 85.849C77.3529 85.849 77.3229 85.829 77.2829 85.829H62.7172C62.6972 85.829 62.6872 85.839 62.6672 85.839C62.6472 85.839 62.5972 85.849 62.5672 85.849L62.4573 85.879C62.423 85.8897 62.3895 85.903 62.3573 85.919C62.3456 85.9269 62.3314 85.9305 62.3173 85.929C62.3059 85.9413 62.2924 85.9515 62.2773 85.959C62.2489 85.9765 62.2222 85.9966 62.1974 86.0189C62.1682 86.043 62.1414 86.0698 62.1174 86.0989C62.0974 86.1289 62.0774 86.1489 62.0574 86.1789C62.045 86.1903 62.0349 86.2039 62.0274 86.2189L0.10564 193.478C0.0912004 193.506 0.0810921 193.536 0.07565 193.568C0.0545173 193.616 0.0378001 193.666 0.0256769 193.717C0.0173707 193.767 0.014012 193.817 0.0156701 193.867C0.0256672 193.917 0.0256867 193.967 0.0356838 194.017ZM76.833 87.3987L137.845 193.078H31.2965L37.6746 182.04H117.361C117.485 182.039 117.606 182.004 117.711 181.94C117.721 181.93 117.741 181.94 117.751 181.93C117.776 181.912 117.8 181.892 117.821 181.87C117.863 181.836 117.903 181.799 117.941 181.76C117.971 181.722 117.998 181.682 118.021 181.64C118.051 181.602 118.071 181.557 118.081 181.51C118.101 181.459 118.112 181.405 118.111 181.35C118.111 181.32 118.131 181.29 118.131 181.25C118.131 181.23 118.121 181.22 118.121 181.2C118.116 181.149 118.106 181.099 118.091 181.05C118.079 180.999 118.062 180.948 118.041 180.9C118.031 180.89 118.031 180.87 118.021 180.86L64.0668 87.3987H76.833ZM131.467 205.695H9.44288L62.7172 113.413L69.0953 124.451L29.247 193.468C29.2391 193.479 29.2356 193.493 29.2371 193.508C29.2159 193.556 29.1992 193.606 29.1871 193.658C29.1723 193.706 29.1623 193.757 29.1571 193.807C29.1571 193.827 29.1471 193.837 29.1471 193.857C29.1471 193.877 29.1671 193.917 29.1671 193.957C29.1722 194.012 29.1823 194.065 29.1971 194.117C29.2171 194.167 29.2371 194.207 29.2571 194.247C29.2814 194.289 29.3081 194.329 29.337 194.367C29.377 194.407 29.417 194.437 29.457 194.477C29.487 194.497 29.497 194.527 29.527 194.537C29.537 194.547 29.557 194.537 29.567 194.547C29.6748 194.606 29.7943 194.64 29.9169 194.647H137.825L131.467 205.695ZM101.426 180.47H38.5743L70.0051 126.031L101.426 180.47ZM62.7172 88.1885L115.992 180.47H103.245L63.407 111.454C63.3946 111.442 63.3845 111.429 63.377 111.414C63.347 111.374 63.307 111.334 63.277 111.294C63.2417 111.255 63.2014 111.222 63.1571 111.194C63.1457 111.182 63.1321 111.171 63.1171 111.164C63.0887 111.149 63.0584 111.139 63.0271 111.134C62.9787 111.113 62.9285 111.096 62.8772 111.084C62.7776 111.071 62.6768 111.071 62.5773 111.084C62.5259 111.096 62.4757 111.113 62.4273 111.134C62.396 111.139 62.3656 111.149 62.3373 111.164C62.3259 111.176 62.3124 111.186 62.2973 111.194C62.2574 111.224 62.2173 111.264 62.1773 111.294C62.136 111.327 62.102 111.367 62.0774 111.414C62.0651 111.425 62.0549 111.439 62.0474 111.454L8.09331 204.915L1.71518 193.877L62.7172 88.1885Z" fill="white"/>
</g>
<g clip-path="url(#clip1_5_76)">
<path d="M200.872 81.0465L217.323 64.5951H165.573L217.476 12.6913L205.84 1.05444L153.945 52.9583V1.20743L137.484 17.6668V81.0465H200.872Z" stroke="#707070" stroke-width="0.999901"/>
</g>
<defs>
<clipPath id="clip0_5_76">
<rect width="139.969" height="121.438" fill="white" transform="translate(0.015625 85.8281)"/>
</clipPath>
<clipPath id="clip1_5_76">
<rect width="81.5469" height="81.5469" fill="white" transform="translate(136.984)"/>
</clipPath>
</defs>
</svg>
