<svg width="230" height="218" viewBox="0 0 230 218" fill="none" xmlns="http://www.w3.org/2000/svg">
<g clip-path="url(#clip0_5_104)">
<path fill-rule="evenodd" clip-rule="evenodd" d="M143.608 125.368C139.012 110.85 129.81 98.2264 117.396 89.4079C104.982 80.5895 90.0316 76.0573 74.8104 76.4978C59.5892 76.9384 44.9262 82.3277 33.0427 91.8493C21.1592 101.371 12.7028 114.506 8.95432 129.265C5.20581 144.024 6.36953 159.603 12.2692 173.641C18.1689 187.679 28.4831 199.412 41.6493 207.063C54.8156 214.713 70.1165 217.864 85.2342 216.038C100.352 214.212 114.463 207.509 125.429 196.944H125.459L126.029 196.374C128.779 193.611 130.322 189.87 130.317 185.972C130.313 182.073 128.762 178.335 126.006 175.579C123.249 172.822 119.511 171.271 115.613 171.267C111.714 171.263 107.973 172.805 105.21 175.555V175.545C99.5747 181.061 92.4537 184.814 84.7187 186.345C76.9837 187.876 68.9701 187.119 61.6587 184.166C54.3473 181.213 48.0551 176.193 43.5524 169.72C39.0498 163.247 36.5317 155.602 36.3067 147.72C36.0817 139.838 38.1593 132.062 42.2853 125.342C46.4113 118.623 52.4068 113.252 59.5378 109.887C66.6689 106.522 74.6262 105.309 82.436 106.396C90.2458 107.483 97.5693 110.824 103.51 116.008L105.48 117.988C106.401 118.921 106.915 120.181 106.91 121.491C106.906 122.802 106.383 124.058 105.457 124.985C104.53 125.911 103.274 126.434 101.963 126.438C100.653 126.443 99.3933 125.929 98.4603 125.008L95.7305 122.268L95.6305 122.368C95.5871 122.246 95.515 122.136 95.4204 122.048C90.7853 118.538 85.2498 116.414 79.4564 115.924C73.6629 115.433 67.8492 116.596 62.6898 119.276C57.5304 121.957 53.2369 126.046 50.3078 131.068C47.3787 136.09 45.934 141.841 46.1414 147.651C46.3488 153.462 48.1998 159.094 51.4795 163.895C54.7592 168.696 59.3331 172.468 64.6705 174.774C70.0079 177.08 75.8898 177.825 81.6335 176.923C87.3773 176.02 92.7473 173.507 97.1204 169.676C97.9437 168.756 98.3956 167.563 98.3882 166.328C98.3808 165.094 97.9147 163.906 97.0804 162.996C95.1105 160.866 91.7406 161.426 90.0707 162.796C87.026 165.272 83.3463 166.842 79.4517 167.326C75.5572 167.81 71.6051 167.189 68.0469 165.533C64.4888 163.878 61.468 161.255 59.33 157.964C57.1919 154.673 56.0226 150.847 55.9559 146.923C55.8891 142.999 56.9274 139.135 58.9523 135.774C60.9771 132.412 63.9068 129.687 67.4066 127.912C70.9063 126.136 74.835 125.381 78.7438 125.732C82.6525 126.083 86.3836 127.527 89.5108 129.898L89.5407 129.878L91.3106 131.648C94.0735 134.398 97.8147 135.94 101.713 135.936C105.612 135.932 109.35 134.381 112.106 131.624C114.863 128.868 116.414 125.13 116.418 121.231C116.423 117.333 114.88 113.592 112.13 110.829L111.91 110.609C111.876 110.451 111.8 110.306 111.69 110.189C104.527 103.334 95.5001 98.7463 85.741 96.9996C75.9818 95.2529 65.9242 96.4253 56.8285 100.37C47.7328 104.314 40.0034 110.856 34.609 119.174C29.2147 127.492 26.3953 137.217 26.5041 147.131C26.6129 157.044 29.6449 166.705 35.2205 174.903C40.796 183.101 48.667 189.471 57.8471 193.215C67.0272 196.959 77.108 197.911 86.8265 195.95C96.545 193.99 105.469 189.205 112.48 182.195C112.494 182.161 112.511 182.127 112.53 182.095C113.432 181.251 114.618 180.775 115.854 180.761C117.09 180.747 118.286 181.197 119.208 182.02C120.129 182.844 120.709 183.982 120.833 185.212C120.957 186.442 120.617 187.673 119.879 188.665C110.748 197.992 98.8309 204.096 85.9262 206.056C73.0214 208.016 59.8293 205.726 48.3403 199.531C36.8512 193.337 27.6887 183.573 22.2351 171.714C16.7816 159.855 15.333 146.544 18.1079 133.79C20.8828 121.036 27.7306 109.53 37.6182 101.009C47.5057 92.4875 59.8964 87.4132 72.9207 86.5516C85.945 85.69 98.8961 89.0878 109.82 96.2323C120.744 103.377 129.048 113.88 133.479 126.158C134.209 128.188 135.918 131.148 139.408 130.928C140.083 130.927 140.749 130.77 141.353 130.469C141.957 130.167 142.483 129.73 142.89 129.192C143.297 128.653 143.574 128.028 143.698 127.364C143.823 126.701 143.792 126.017 143.608 125.368Z" stroke="white" stroke-width="1.9999" stroke-miterlimit="10" stroke-linecap="round" stroke-linejoin="round"/>
</g>
<g clip-path="url(#clip1_5_104)">
<path d="M211.56 81.0465L228.011 64.5951H176.26L228.164 12.6913L216.527 1.05444L164.632 52.9583V1.20743L148.172 17.6668V81.0465H211.56Z" stroke="#707070" stroke-width="0.999901"/>
</g>
<defs>
<clipPath id="clip0_5_104">
<rect width="138.922" height="142" fill="white" transform="translate(5.875 75.5469)"/>
</clipPath>
<clipPath id="clip1_5_104">
<rect width="81.5469" height="81.5469" fill="white" transform="translate(147.672)"/>
</clipPath>
</defs>
</svg>
