<svg width="175" height="218" viewBox="0 0 175 218" fill="none" xmlns="http://www.w3.org/2000/svg">
<g clip-path="url(#clip0_5_113)">
<path d="M116.555 187.197C116.565 187.187 116.565 187.167 116.575 187.157C116.594 187.126 116.607 187.092 116.614 187.057C116.624 187.027 116.635 186.987 116.645 186.957C116.653 186.924 116.656 186.89 116.655 186.857C116.655 186.837 116.665 186.827 116.665 186.807C116.665 186.787 116.655 186.777 116.655 186.757C116.655 186.737 116.645 186.687 116.645 186.657C116.645 186.627 116.624 186.587 116.614 186.557C116.604 186.522 116.59 186.489 116.575 186.457C116.565 186.447 116.565 186.427 116.555 186.417L105.339 166.992H127.761C127.882 166.988 128.002 166.957 128.11 166.902C128.14 166.882 128.16 166.862 128.19 166.842C128.271 166.791 128.34 166.723 128.39 166.642C128.4 166.622 128.42 166.612 128.44 166.592L139.796 146.927C139.806 146.917 139.806 146.897 139.816 146.887C139.836 146.856 139.849 146.822 139.856 146.787C139.866 146.757 139.876 146.717 139.886 146.687C139.895 146.654 139.898 146.621 139.896 146.587C139.896 146.567 139.906 146.557 139.906 146.537C139.906 146.517 139.896 146.507 139.896 146.487C139.896 146.467 139.886 146.417 139.886 146.387C139.886 146.357 139.866 146.317 139.856 146.287C139.846 146.253 139.832 146.219 139.816 146.187C139.806 146.177 139.806 146.157 139.796 146.147L128.44 126.482C128.423 126.457 128.403 126.433 128.38 126.412C128.349 126.367 128.312 126.327 128.27 126.292C128.229 126.26 128.185 126.23 128.14 126.202C128.1 126.176 128.056 126.156 128.01 126.142C127.959 126.123 127.905 126.112 127.851 126.112C127.821 126.112 127.791 126.092 127.761 126.092H105.339L116.555 106.667C116.565 106.657 116.565 106.637 116.575 106.627C116.594 106.597 116.607 106.563 116.614 106.527C116.624 106.497 116.635 106.457 116.645 106.427C116.653 106.395 116.656 106.361 116.655 106.327C116.655 106.307 116.665 106.297 116.665 106.277C116.665 106.257 116.655 106.247 116.655 106.227C116.655 106.207 116.645 106.157 116.645 106.127C116.645 106.097 116.624 106.057 116.614 106.027C116.604 105.993 116.59 105.96 116.575 105.927C116.565 105.917 116.565 105.897 116.555 105.887L105.209 86.2224C105.191 86.197 105.171 86.1736 105.149 86.1524C105.118 86.1101 105.085 86.07 105.049 86.0325C105.007 86.0002 104.964 85.9701 104.919 85.9425C104.878 85.9166 104.835 85.8964 104.789 85.8825C104.738 85.8629 104.683 85.8528 104.629 85.8525C104.599 85.8525 104.569 85.8325 104.539 85.8325H81.8368C81.8168 85.8325 81.8068 85.8425 81.7868 85.8425C81.7668 85.8425 81.7169 85.8525 81.6869 85.8525L81.5769 85.8825C81.5452 85.8916 81.5148 85.905 81.4869 85.9225C81.4751 85.9304 81.4611 85.934 81.447 85.9325L81.4169 85.9625C81.3885 85.98 81.3618 86.0001 81.337 86.0225C81.3079 86.0466 81.281 86.0733 81.257 86.1025C81.237 86.1324 81.217 86.1524 81.1971 86.1824C81.1847 86.1938 81.1745 86.2074 81.167 86.2224L69.951 105.647L58.735 86.2224C58.7176 86.197 58.6974 86.1736 58.675 86.1524C58.6411 86.11 58.6044 86.0699 58.565 86.0325C58.5274 86.0024 58.4873 85.9756 58.4451 85.9525C58.4047 85.9266 58.361 85.9064 58.3151 85.8925C58.2643 85.872 58.2099 85.8619 58.1551 85.8625C58.1251 85.8625 58.0952 85.8425 58.0652 85.8425H35.3633C35.3433 85.8425 35.3332 85.8525 35.3132 85.8525C35.2932 85.8525 35.2433 85.8625 35.2133 85.8625L35.1033 85.8925C35.0716 85.9016 35.0413 85.915 35.0133 85.9325C35.0016 85.9404 34.9875 85.944 34.9734 85.9425C34.962 85.9548 34.9484 85.965 34.9334 85.9725C34.9049 85.99 34.8782 86.0101 34.8534 86.0325C34.8243 86.0565 34.7975 86.0833 34.7734 86.1124C34.7534 86.1424 34.7335 86.1624 34.7135 86.1924C34.7011 86.2038 34.6909 86.2174 34.6834 86.2324L23.3375 105.897C23.323 105.926 23.3129 105.956 23.3075 105.987C23.2863 106.036 23.2695 106.086 23.2574 106.137C23.2441 106.237 23.2441 106.338 23.2574 106.437C23.2695 106.489 23.2863 106.539 23.3075 106.587C23.3129 106.619 23.323 106.649 23.3375 106.677L34.5535 126.102H12.1315C12.1115 126.102 12.1014 126.112 12.0814 126.112C12.0614 126.112 12.0115 126.122 11.9815 126.122L11.8715 126.152C11.8398 126.161 11.8095 126.175 11.7815 126.192C11.7715 126.202 11.7516 126.202 11.7416 126.212L11.7116 126.242C11.6831 126.26 11.6564 126.28 11.6316 126.302C11.6025 126.326 11.5757 126.353 11.5516 126.382C11.5316 126.412 11.5117 126.432 11.4917 126.462C11.4793 126.473 11.4691 126.487 11.4617 126.502L0.10568 146.167C0.0912415 146.195 0.0811033 146.226 0.0756616 146.257C0.0545301 146.305 0.0377528 146.356 0.0256304 146.407C0.0122899 146.507 0.0122899 146.607 0.0256304 146.707C0.0377528 146.758 0.0545301 146.808 0.0756616 146.857C0.0811033 146.888 0.0912415 146.919 0.10568 146.947L11.4617 166.612L11.4917 166.642C11.5119 166.674 11.5352 166.704 11.5616 166.732C11.6016 166.772 11.6416 166.802 11.6816 166.842C11.7115 166.862 11.7216 166.892 11.7516 166.902C11.7633 166.91 11.7774 166.913 11.7915 166.912C11.9 166.967 12.0195 166.998 12.1413 167.002H34.5635L23.3575 186.427C23.343 186.455 23.3329 186.485 23.3275 186.517C23.3063 186.565 23.2896 186.615 23.2774 186.667C23.2641 186.766 23.2641 186.867 23.2774 186.967C23.2896 187.018 23.3063 187.068 23.3275 187.117C23.3329 187.148 23.343 187.178 23.3575 187.207L34.7035 206.871L34.7335 206.901C34.7536 206.934 34.777 206.964 34.8034 206.991C34.8434 207.031 34.8834 207.061 34.9233 207.101C34.9533 207.121 34.9634 207.151 34.9934 207.161C35.0051 207.169 35.0192 207.173 35.0333 207.171C35.1418 207.227 35.2613 207.258 35.3831 207.261H58.0852C58.2071 207.258 58.3265 207.227 58.4351 207.171C58.4651 207.151 58.485 207.131 58.515 207.111C58.5958 207.061 58.6642 206.992 58.715 206.911C58.725 206.891 58.7449 206.881 58.7649 206.861L69.981 187.436L81.1971 206.861L81.2271 206.891C81.2472 206.924 81.2706 206.954 81.297 206.981C81.337 207.021 81.377 207.051 81.4169 207.091C81.4469 207.111 81.4569 207.141 81.4869 207.151C81.4986 207.159 81.5128 207.163 81.5269 207.161C81.6354 207.217 81.7549 207.248 81.8767 207.251H104.579C104.701 207.248 104.82 207.217 104.929 207.161C104.959 207.141 104.979 207.121 105.009 207.101C105.089 207.051 105.158 206.982 105.209 206.901C105.219 206.881 105.239 206.871 105.259 206.851L116.555 187.197ZM104.069 205.682H83.1763L93.6226 187.586H114.515L104.069 205.682ZM57.5854 205.682H36.6927L59.0348 166.992H79.9275L57.5854 205.682ZM13.4509 165.412L23.8972 147.317H68.5715L58.1251 165.412H13.4509ZM12.0914 128.442L22.5377 146.537L12.0914 164.632L1.64505 146.537L12.0914 128.442ZM24.8869 106.267L35.3332 88.1719L57.6753 126.862L47.2291 144.957L24.8869 106.267ZM81.8268 88.1819L92.2731 106.277L69.941 144.967L59.4946 126.872L81.8268 88.1819ZM104.069 87.3921L114.515 105.487H93.6226L83.1763 87.3921H104.069ZM127.321 127.662L137.767 145.757H93.0929L82.6465 127.662H127.321ZM81.277 128.442L91.2634 145.747H71.2805L81.277 128.442ZM68.5715 145.747H48.5886L58.575 128.442L68.5715 145.747ZM69.931 148.107L79.9175 165.412H59.9345L69.931 148.107ZM71.2905 147.327H92.1732L114.505 186.017H93.6126L71.2905 147.327ZM93.9925 147.327H137.757L127.311 165.422H104.429L93.9925 147.327ZM82.6465 126.082L93.6326 107.057H114.525L103.539 126.082H82.6465ZM58.575 125.302L36.6927 87.3921H57.5854L69.0313 107.207L58.575 125.302ZM45.8596 145.747H23.8872L13.4409 127.652H35.4132L45.8596 145.747ZM57.2155 166.992L35.3332 204.902L24.8869 186.807L36.3229 166.992H57.2155ZM81.277 167.772L92.2631 186.797L81.8168 204.892L70.8307 185.857L81.277 167.772Z" fill="white"/>
</g>
<g clip-path="url(#clip1_5_113)">
<path d="M200.794 81.0465L217.245 64.5951H165.494L217.398 12.6913L205.761 1.05444L153.867 52.9583V1.20743L137.406 17.6668V81.0465H200.794Z" stroke="#707070" stroke-width="0.999901"/>
</g>
<defs>
<clipPath id="clip0_5_113">
<rect width="139.891" height="121.438" fill="white" transform="translate(0.015625 85.8281)"/>
</clipPath>
<clipPath id="clip1_5_113">
<rect width="81.5469" height="81.5469" fill="white" transform="translate(136.906)"/>
</clipPath>
</defs>
</svg>
