<svg width="200" height="218" viewBox="0 0 200 218" fill="none" xmlns="http://www.w3.org/2000/svg">
<g clip-path="url(#clip0_5_85)">
<path d="M121.219 111.557L100.522 99.6093L81.3158 110.698V88.5111L60.6094 76.563L39.913 88.5111V110.688L20.7064 99.5993L0 111.557V135.464L19.2067 146.552L0 157.64V181.546L20.6964 193.494L39.903 182.406V204.583L60.5994 216.531L81.2957 204.583V182.406L100.502 193.494L121.219 181.546V157.64L102.012 146.552L121.219 135.464V111.557ZM100.522 101.329L118.989 111.987L81.4357 133.734L81.3158 112.417L100.522 101.329ZM79.826 113.277L79.946 134.604L61.3593 145.372V100.899L79.826 90.2408V113.277ZM41.4028 90.2408L59.8596 100.899V145.372L41.4028 134.684V90.2408ZM20.6964 101.329L39.903 112.417V133.804L2.23966 111.987L20.6964 101.329ZM1.48979 134.604V113.287L39.1632 135.104L20.7064 145.692L1.48979 134.604ZM1.48979 180.686V159.37L19.9465 170.028V191.345L1.48979 180.686ZM2.23966 158.07L21.0763 147.202L40.6629 135.964L59.1196 146.652L20.7064 168.728L2.23966 158.07ZM59.8596 214.381L41.4028 203.723V181.546L59.8596 170.888V214.381ZM41.4028 179.827L40.283 180.477L21.4463 191.355V170.038L59.8596 147.962V169.168L41.4028 179.827ZM60.6094 99.6093L42.1526 88.951L60.6094 78.2927L79.0662 88.951L60.6094 99.6093ZM79.816 203.723L61.3593 214.381V170.888L79.816 181.546V203.723ZM99.7726 191.345L80.9358 180.467L79.816 179.817L61.3593 169.158V147.952L99.7726 170.028V191.345ZM119.729 180.686L101.272 191.345V169.848L119.729 159.36V180.686ZM118.969 158.07L100.362 168.648L62.0992 146.662L80.6859 135.894L99.0327 146.552L99.6526 146.912L100.023 147.132L100.142 147.202L118.969 158.07ZM119.729 134.604L100.522 145.692L82.1856 135.034L119.739 113.287V134.604H119.729Z" fill="white"/>
</g>
<g clip-path="url(#clip1_5_85)">
<path d="M182.106 81.0465L198.558 64.5951H146.807L198.711 12.6913L187.074 1.05444L135.179 52.9583V1.20743L118.719 17.6668V81.0465H182.106Z" stroke="#707070" stroke-width="0.999901"/>
</g>
<defs>
<clipPath id="clip0_5_85">
<rect width="121.219" height="139.969" fill="white" transform="translate(0 76.5625)"/>
</clipPath>
<clipPath id="clip1_5_85">
<rect width="81.5469" height="81.5469" fill="white" transform="translate(118.219)"/>
</clipPath>
</defs>
</svg>
