<svg width="219" height="218" viewBox="0 0 219 218" fill="none" xmlns="http://www.w3.org/2000/svg">
<g clip-path="url(#clip0_5_95)">
<path d="M114.515 83.6158L88.3405 98.6125L88.3904 137.654L51.9585 98.1026L25.2544 83.6258L0 97.9027V179.095L25.5244 193.342L51.7185 178.845V172.186L87.2907 209.478L139.969 179.065V97.9027L114.515 83.6158ZM90.7899 101.412L115.454 115.559V167.027L90.8299 140.303L90.7899 101.412ZM2.44947 100.712L24.8045 113.619L86.4209 179.825L86.4409 205.019L24.3846 139.953V189.892L2.44947 177.665V100.712ZM49.2691 169.837V177.415L26.7141 189.892V146.012L49.409 169.837H49.2691ZM137.639 177.675L88.8703 205.819L88.8504 178.875L26.3342 111.71L3.67918 98.6325L25.2944 86.4052L50.4688 100.052L117.904 173.246V114.149L92.0196 99.3124L114.585 86.3952L137.639 99.3124V177.675Z" fill="white"/>
</g>
<g clip-path="url(#clip1_5_95)">
<path d="M200.856 81.0465L217.308 64.5951H165.557L217.461 12.6913L205.824 1.05444L153.929 52.9583V1.20743L137.469 17.6668V81.0465H200.856Z" stroke="#707070" stroke-width="0.999901"/>
</g>
<defs>
<clipPath id="clip0_5_95">
<rect width="139.969" height="125.875" fill="white" transform="translate(0 83.6094)"/>
</clipPath>
<clipPath id="clip1_5_95">
<rect width="81.5469" height="81.5469" fill="white" transform="translate(136.969)"/>
</clipPath>
</defs>
</svg>
