<svg width="229" height="218" viewBox="0 0 229 218" fill="none" xmlns="http://www.w3.org/2000/svg">
<g clip-path="url(#clip0_5_67)">
<path d="M0.00994478 176.347C0.0205786 176.403 0.0373475 176.456 0.0599374 176.507C0.069936 176.537 0.0799345 176.577 0.089933 176.607L11.4983 196.365L11.5283 196.395C11.5483 196.425 11.5682 196.455 11.5982 196.495C11.6368 196.536 11.6805 196.573 11.7282 196.605C11.7582 196.625 11.7782 196.655 11.8082 196.674C11.8199 196.682 11.8341 196.686 11.8482 196.685C11.9614 196.748 12.0885 196.782 12.2182 196.784H57.3515L68.5199 216.122L68.5499 216.152C68.5699 216.182 68.5899 216.212 68.6199 216.252C68.6585 216.294 68.7021 216.33 68.7499 216.362C68.7799 216.382 68.7998 216.412 68.8298 216.432C68.8416 216.44 68.8557 216.443 68.8698 216.442C68.983 216.505 69.1101 216.539 69.2398 216.542H137.68C137.813 216.539 137.943 216.505 138.06 216.442L138.15 216.382C138.235 216.325 138.309 216.254 138.37 216.172C138.38 216.152 138.41 216.142 138.42 216.122L149.828 196.365C149.838 196.345 149.838 196.335 149.848 196.315C149.866 196.283 149.879 196.249 149.888 196.215C149.898 196.175 149.908 196.145 149.918 196.105C149.926 196.069 149.93 196.032 149.928 195.995C149.928 195.975 149.938 195.965 149.938 195.945C149.938 195.925 149.928 195.915 149.928 195.895C149.928 195.855 149.918 195.825 149.918 195.785C149.918 195.745 149.898 195.715 149.888 195.675C149.876 195.641 149.863 195.607 149.848 195.575C149.838 195.555 149.838 195.545 149.828 195.525L127.261 156.44L138.42 137.103C138.43 137.083 138.43 137.073 138.44 137.053C138.457 137.022 138.471 136.988 138.48 136.953C138.49 136.913 138.5 136.883 138.51 136.843C138.518 136.807 138.521 136.77 138.52 136.733C138.52 136.713 138.53 136.703 138.53 136.683C138.53 136.663 138.52 136.653 138.52 136.633C138.52 136.593 138.51 136.563 138.51 136.523C138.51 136.483 138.49 136.453 138.48 136.413C138.468 136.379 138.455 136.346 138.44 136.313C138.43 136.293 138.43 136.283 138.42 136.263L104.215 76.9821C104.195 76.9521 104.165 76.9321 104.145 76.9021C104.11 76.8567 104.074 76.8133 104.035 76.7721C103.994 76.7388 103.95 76.7087 103.905 76.6821C103.861 76.6529 103.814 76.6293 103.765 76.6121C103.706 76.593 103.646 76.5796 103.585 76.5721C103.555 76.5721 103.525 76.5521 103.485 76.5521H80.6681C80.6481 76.5521 80.6381 76.5621 80.6181 76.5621C80.5781 76.5621 80.5481 76.5721 80.5081 76.5721L80.3882 76.6021C80.3582 76.6121 80.3182 76.6321 80.2882 76.6421C80.2582 76.6521 80.2582 76.6521 80.2382 76.6621C80.2268 76.6745 80.2132 76.6846 80.1982 76.6921C80.1658 76.7123 80.1357 76.7357 80.1082 76.7621C80.0791 76.7862 80.0523 76.813 80.0282 76.8421C80.0082 76.8721 79.9782 76.9021 79.9582 76.9321C79.9459 76.9435 79.9357 76.957 79.9282 76.9721L57.3615 116.066H35.0448C35.0248 116.066 35.0148 116.076 34.9948 116.076C34.9548 116.076 34.9248 116.086 34.8848 116.086C34.8448 116.086 34.8048 116.106 34.7748 116.116C34.7408 116.128 34.7075 116.141 34.6749 116.156C34.6549 116.166 34.6449 116.166 34.6249 116.176C34.6049 116.186 34.6049 116.196 34.5849 116.206C34.5525 116.226 34.5224 116.25 34.4949 116.276C34.4658 116.3 34.439 116.327 34.4149 116.356C34.3949 116.386 34.3649 116.416 34.3449 116.446C34.3326 116.458 34.3224 116.471 34.3149 116.486L0.0999316 175.768C0.0853924 175.799 0.0752991 175.833 0.069936 175.868C0.0487471 175.919 0.0320221 175.973 0.0199433 176.028C0.00407223 176.079 -0.00269386 176.133 -5.37512e-05 176.188C-0.00170921 176.241 0.00163817 176.295 0.00994478 176.347ZM102.995 78.2519L136.24 135.833H115.383L82.1279 78.2519H102.995ZM114.403 175.348H93.5362L115.373 137.513H136.24L114.403 175.348ZM80.6681 79.0918L113.913 136.673L92.0764 174.508L81.648 156.43L92.8163 137.093C92.8263 137.073 92.8263 137.063 92.8363 137.043C92.8539 137.012 92.8673 136.978 92.8763 136.943C92.8863 136.903 92.8963 136.873 92.9063 136.833C92.9146 136.797 92.918 136.76 92.9163 136.723C92.9163 136.703 92.9263 136.693 92.9263 136.673C92.9263 136.653 92.9163 136.643 92.9163 136.623C92.9163 136.583 92.9063 136.553 92.9063 136.513C92.9063 136.473 92.8863 136.443 92.8763 136.403C92.8647 136.369 92.8514 136.336 92.8363 136.303C92.8263 136.283 92.8263 136.273 92.8163 136.253L81.398 116.496C81.378 116.466 81.348 116.446 81.328 116.416C81.2938 116.371 81.2571 116.328 81.218 116.286C81.1771 116.253 81.1336 116.223 81.088 116.196C81.0435 116.169 80.9966 116.146 80.9481 116.126C80.8935 116.107 80.836 116.097 80.7781 116.096C80.7481 116.096 80.7081 116.076 80.6781 116.076H59.3212L80.6681 79.0918ZM57.8615 117.766H80.1882L90.6266 135.833H46.9431L36.5046 117.766H57.8615ZM35.0448 118.606L45.4733 136.673L12.2282 194.255L1.79968 176.188L35.0448 118.606ZM13.6979 195.095L46.9431 137.513H90.6266L80.1882 155.591H57.8615C57.8415 155.591 57.8315 155.601 57.8115 155.601C57.7715 155.601 57.7415 155.611 57.7015 155.611L57.5815 155.641C57.5515 155.651 57.5115 155.671 57.4815 155.681C57.4515 155.691 57.4515 155.691 57.4315 155.701C57.4201 155.713 57.4066 155.723 57.3915 155.731C57.3592 155.751 57.329 155.774 57.3015 155.8C57.2724 155.825 57.2456 155.851 57.2215 155.88C57.2015 155.91 57.1716 155.94 57.1516 155.97C57.1416 155.98 57.1216 155.99 57.1216 156.01L45.7132 175.768C45.6987 175.799 45.6886 175.833 45.6832 175.868C45.6621 175.919 45.6453 175.973 45.6332 176.028C45.6246 176.08 45.6213 176.134 45.6233 176.188C45.6216 176.241 45.6249 176.295 45.6332 176.347C45.6439 176.403 45.6606 176.456 45.6832 176.507C45.6932 176.537 45.7032 176.577 45.7132 176.607L56.3917 195.095H13.6979ZM137.22 214.852H70.7296L81.158 196.784H147.648L137.22 214.852ZM69.2698 214.012L47.433 176.188L57.8715 158.11L79.7083 195.935L69.2698 214.012ZM147.648 195.095H81.158L59.3212 157.27H80.1882L91.3565 176.607L91.3865 176.637C91.4064 176.673 91.4299 176.707 91.4565 176.737C91.4951 176.779 91.5388 176.816 91.5865 176.847C91.6165 176.867 91.6365 176.897 91.6665 176.917C91.6782 176.925 91.6924 176.929 91.7065 176.927C91.8197 176.991 91.9468 177.025 92.0764 177.027H114.893C115.026 177.025 115.156 176.991 115.273 176.927L115.363 176.867C115.448 176.811 115.522 176.74 115.583 176.657C115.593 176.637 115.623 176.627 115.633 176.607L126.311 158.11L147.648 195.095Z" fill="white"/>
</g>
<g clip-path="url(#clip1_5_67)">
<path d="M210.825 81.0465L227.277 64.5951H175.526L227.43 12.6913L215.793 1.05444L163.898 52.9583V1.20743L147.438 17.6668V81.0465H210.825Z" stroke="#707070" stroke-width="0.999901"/>
</g>
<defs>
<clipPath id="clip0_5_67">
<rect width="149.938" height="140" fill="white" transform="translate(0 76.5469)"/>
</clipPath>
<clipPath id="clip1_5_67">
<rect width="81.5469" height="81.5469" fill="white" transform="translate(146.938)"/>
</clipPath>
</defs>
</svg>
